<mxfile host="app.diagrams.net" modified="2024-03-19T20:45:16.050Z" agent="Mozilla/5.0 (Macintosh; Intel Mac OS X 10_13_6) AppleWebKit/605.1.15 (KHTML, like Gecko) Version/13.1.2 Safari/605.1.15" etag="W1T62BvsGHQ0btofEQMQ" version="24.0.5" type="github">
  <diagram name="Page-1" id="5f0bae14-7c28-e335-631c-24af17079c00">
    <mxGraphModel dx="2060" dy="683" grid="1" gridSize="10" guides="1" tooltips="1" connect="1" arrows="1" fold="1" page="1" pageScale="1" pageWidth="1100" pageHeight="850" background="none" math="0" shadow="0">
      <root>
        <mxCell id="0" />
        <mxCell id="1" parent="0" />
        <mxCell id="039ZhcAlNsJrHrZB0und-25" value="" style="html=1;dropTarget=0;whiteSpace=wrap;" vertex="1" parent="1">
          <mxGeometry x="60" y="30" width="320" height="290" as="geometry" />
        </mxCell>
        <mxCell id="039ZhcAlNsJrHrZB0und-26" value="" style="shape=module;jettyWidth=8;jettyHeight=4;" vertex="1" parent="039ZhcAlNsJrHrZB0und-25">
          <mxGeometry x="1" width="20" height="20" relative="1" as="geometry">
            <mxPoint x="-27" y="7" as="offset" />
          </mxGeometry>
        </mxCell>
        <mxCell id="039ZhcAlNsJrHrZB0und-1" value="«component»&lt;br&gt;&lt;b&gt;:country&lt;/b&gt;" style="html=1;dropTarget=0;whiteSpace=wrap;" vertex="1" parent="1">
          <mxGeometry x="540" y="56.25" width="150" height="85" as="geometry" />
        </mxCell>
        <mxCell id="039ZhcAlNsJrHrZB0und-2" value="" style="shape=module;jettyWidth=8;jettyHeight=4;" vertex="1" parent="039ZhcAlNsJrHrZB0und-1">
          <mxGeometry x="1" width="20" height="20" relative="1" as="geometry">
            <mxPoint x="-27" y="7" as="offset" />
          </mxGeometry>
        </mxCell>
        <mxCell id="039ZhcAlNsJrHrZB0und-35" value="" style="html=1;rounded=0;" vertex="1" parent="1">
          <mxGeometry x="380" y="110" width="20" height="20" as="geometry" />
        </mxCell>
        <mxCell id="039ZhcAlNsJrHrZB0und-36" value="" style="endArrow=none;html=1;rounded=0;align=center;verticalAlign=top;endFill=0;labelBackgroundColor=none;endSize=2;" edge="1" source="039ZhcAlNsJrHrZB0und-35" target="039ZhcAlNsJrHrZB0und-37" parent="1">
          <mxGeometry relative="1" as="geometry" />
        </mxCell>
        <mxCell id="039ZhcAlNsJrHrZB0und-37" value="" style="shape=requiredInterface;html=1;fontSize=11;align=center;fillColor=none;points=[];aspect=fixed;resizable=0;verticalAlign=bottom;labelPosition=center;verticalLabelPosition=top;flipH=1;" vertex="1" parent="1">
          <mxGeometry x="430" y="115" width="5" height="10" as="geometry" />
        </mxCell>
        <mxCell id="039ZhcAlNsJrHrZB0und-38" value="" style="html=1;rounded=0;" vertex="1" parent="1">
          <mxGeometry x="520" y="90" width="20" height="17.5" as="geometry" />
        </mxCell>
        <mxCell id="039ZhcAlNsJrHrZB0und-39" value="" style="endArrow=none;html=1;rounded=0;align=center;verticalAlign=top;endFill=0;labelBackgroundColor=none;endSize=2;" edge="1" source="039ZhcAlNsJrHrZB0und-38" target="039ZhcAlNsJrHrZB0und-40" parent="1">
          <mxGeometry relative="1" as="geometry" />
        </mxCell>
        <mxCell id="039ZhcAlNsJrHrZB0und-40" value="" style="ellipse;html=1;fontSize=11;align=center;fillColor=none;points=[];aspect=fixed;resizable=0;verticalAlign=bottom;labelPosition=center;verticalLabelPosition=top;flipH=1;" vertex="1" parent="1">
          <mxGeometry x="500" y="94.75" width="8" height="8" as="geometry" />
        </mxCell>
        <mxCell id="039ZhcAlNsJrHrZB0und-41" value="" style="endArrow=none;dashed=1;html=1;rounded=0;entryX=0.972;entryY=0.576;entryDx=0;entryDy=0;entryPerimeter=0;exitX=-0.067;exitY=0.244;exitDx=0;exitDy=0;exitPerimeter=0;" edge="1" parent="1" source="039ZhcAlNsJrHrZB0und-37" target="039ZhcAlNsJrHrZB0und-40">
          <mxGeometry width="50" height="50" relative="1" as="geometry">
            <mxPoint x="550" y="175" as="sourcePoint" />
            <mxPoint x="580" y="120" as="targetPoint" />
          </mxGeometry>
        </mxCell>
        <mxCell id="039ZhcAlNsJrHrZB0und-42" value="«component»&lt;br&gt;&lt;b&gt;:population&lt;/b&gt;" style="html=1;dropTarget=0;whiteSpace=wrap;" vertex="1" parent="1">
          <mxGeometry x="140" y="240" width="130" height="65" as="geometry" />
        </mxCell>
        <mxCell id="039ZhcAlNsJrHrZB0und-43" value="" style="shape=module;jettyWidth=8;jettyHeight=4;" vertex="1" parent="039ZhcAlNsJrHrZB0und-42">
          <mxGeometry x="1" width="20" height="20" relative="1" as="geometry">
            <mxPoint x="-27" y="7" as="offset" />
          </mxGeometry>
        </mxCell>
        <mxCell id="039ZhcAlNsJrHrZB0und-44" value="«component»&lt;br&gt;&lt;b&gt;:Order&lt;/b&gt;" style="html=1;dropTarget=0;whiteSpace=wrap;" vertex="1" parent="1">
          <mxGeometry x="140" y="85" width="130" height="65" as="geometry" />
        </mxCell>
        <mxCell id="039ZhcAlNsJrHrZB0und-45" value="" style="shape=module;jettyWidth=8;jettyHeight=4;" vertex="1" parent="039ZhcAlNsJrHrZB0und-44">
          <mxGeometry x="1" width="20" height="20" relative="1" as="geometry">
            <mxPoint x="-27" y="7" as="offset" />
          </mxGeometry>
        </mxCell>
        <mxCell id="039ZhcAlNsJrHrZB0und-50" value="" style="html=1;rounded=0;" vertex="1" parent="1">
          <mxGeometry x="195" y="222.5" width="20" height="17.5" as="geometry" />
        </mxCell>
        <mxCell id="039ZhcAlNsJrHrZB0und-53" value="" style="html=1;rounded=0;" vertex="1" parent="1">
          <mxGeometry x="270" y="107.5" width="20" height="20" as="geometry" />
        </mxCell>
        <mxCell id="039ZhcAlNsJrHrZB0und-56" value="" style="html=1;rounded=0;" vertex="1" parent="1">
          <mxGeometry x="195" y="150" width="20" height="20" as="geometry" />
        </mxCell>
        <mxCell id="039ZhcAlNsJrHrZB0und-63" value="" style="rounded=0;orthogonalLoop=1;jettySize=auto;html=1;endArrow=halfCircle;endFill=0;endSize=6;strokeWidth=1;sketch=0;" edge="1" parent="1">
          <mxGeometry relative="1" as="geometry">
            <mxPoint x="290" y="118" as="sourcePoint" />
            <mxPoint x="315" y="117.82" as="targetPoint" />
          </mxGeometry>
        </mxCell>
        <mxCell id="039ZhcAlNsJrHrZB0und-66" value="" style="rounded=0;orthogonalLoop=1;jettySize=auto;html=1;endArrow=halfCircle;endFill=0;endSize=6;strokeWidth=1;sketch=0;exitX=0.5;exitY=1;exitDx=0;exitDy=0;" edge="1" target="039ZhcAlNsJrHrZB0und-68" parent="1" source="039ZhcAlNsJrHrZB0und-56">
          <mxGeometry relative="1" as="geometry">
            <mxPoint x="250" y="185" as="sourcePoint" />
          </mxGeometry>
        </mxCell>
        <mxCell id="039ZhcAlNsJrHrZB0und-67" value="" style="rounded=0;orthogonalLoop=1;jettySize=auto;html=1;endArrow=oval;endFill=0;sketch=0;sourcePerimeterSpacing=0;targetPerimeterSpacing=0;endSize=10;entryX=0.842;entryY=0.375;entryDx=0;entryDy=0;entryPerimeter=0;exitX=0.5;exitY=0;exitDx=0;exitDy=0;" edge="1" target="039ZhcAlNsJrHrZB0und-68" parent="1" source="039ZhcAlNsJrHrZB0und-50">
          <mxGeometry relative="1" as="geometry">
            <mxPoint x="210" y="185" as="sourcePoint" />
          </mxGeometry>
        </mxCell>
        <mxCell id="039ZhcAlNsJrHrZB0und-68" value="" style="ellipse;whiteSpace=wrap;html=1;align=center;aspect=fixed;fillColor=none;strokeColor=none;resizable=0;perimeter=centerPerimeter;rotatable=0;allowArrows=0;points=[];outlineConnect=1;" vertex="1" parent="1">
          <mxGeometry x="200" y="190" width="10" height="10" as="geometry" />
        </mxCell>
        <mxCell id="039ZhcAlNsJrHrZB0und-74" value="" style="endArrow=none;html=1;rounded=0;entryX=0;entryY=0.5;entryDx=0;entryDy=0;" edge="1" parent="1" target="039ZhcAlNsJrHrZB0und-35">
          <mxGeometry width="50" height="50" relative="1" as="geometry">
            <mxPoint x="320" y="120" as="sourcePoint" />
            <mxPoint x="500" y="210" as="targetPoint" />
            <Array as="points">
              <mxPoint x="360" y="120" />
            </Array>
          </mxGeometry>
        </mxCell>
        <mxCell id="039ZhcAlNsJrHrZB0und-90" value="&lt;span style=&quot;white-space: normal; background-color: rgb(251, 251, 251);&quot;&gt;&lt;font style=&quot;font-size: 6px;&quot;&gt;«delegate»&lt;/font&gt;&lt;/span&gt;" style="edgeLabel;html=1;align=center;verticalAlign=middle;resizable=0;points=[];" vertex="1" connectable="0" parent="039ZhcAlNsJrHrZB0und-74">
          <mxGeometry x="0.1117" y="-1" relative="1" as="geometry">
            <mxPoint y="-6" as="offset" />
          </mxGeometry>
        </mxCell>
        <mxCell id="039ZhcAlNsJrHrZB0und-75" value="" style="html=1;rounded=0;" vertex="1" parent="1">
          <mxGeometry x="120" y="110" width="20" height="20" as="geometry" />
        </mxCell>
        <mxCell id="039ZhcAlNsJrHrZB0und-78" value="" style="ellipse;whiteSpace=wrap;html=1;align=center;aspect=fixed;fillColor=none;strokeColor=none;resizable=0;perimeter=centerPerimeter;rotatable=0;allowArrows=0;points=[];outlineConnect=1;" vertex="1" parent="1">
          <mxGeometry x="135" y="110" width="10" height="10" as="geometry" />
        </mxCell>
        <mxCell id="039ZhcAlNsJrHrZB0und-80" value="" style="rounded=0;orthogonalLoop=1;jettySize=auto;html=1;endArrow=oval;endFill=0;sketch=0;sourcePerimeterSpacing=0;targetPerimeterSpacing=0;endSize=10;exitX=0;exitY=0.5;exitDx=0;exitDy=0;" edge="1" parent="1" source="039ZhcAlNsJrHrZB0und-75">
          <mxGeometry relative="1" as="geometry">
            <mxPoint x="130" y="125" as="sourcePoint" />
            <mxPoint x="100" y="120" as="targetPoint" />
          </mxGeometry>
        </mxCell>
        <mxCell id="039ZhcAlNsJrHrZB0und-81" value="" style="html=1;rounded=0;" vertex="1" parent="1">
          <mxGeometry x="40" y="80" width="20" height="20" as="geometry" />
        </mxCell>
        <mxCell id="039ZhcAlNsJrHrZB0und-82" value="" style="rounded=0;orthogonalLoop=1;jettySize=auto;html=1;endArrow=oval;endFill=0;sketch=0;sourcePerimeterSpacing=0;targetPerimeterSpacing=0;endSize=10;exitX=0;exitY=0.5;exitDx=0;exitDy=0;" edge="1" parent="1" source="039ZhcAlNsJrHrZB0und-81">
          <mxGeometry relative="1" as="geometry">
            <mxPoint x="70" y="95" as="sourcePoint" />
            <mxPoint x="-30" y="90" as="targetPoint" />
          </mxGeometry>
        </mxCell>
        <mxCell id="039ZhcAlNsJrHrZB0und-86" value="" style="rounded=0;orthogonalLoop=1;jettySize=auto;html=1;endArrow=oval;endFill=0;sketch=0;sourcePerimeterSpacing=0;targetPerimeterSpacing=0;endSize=10;exitX=1;exitY=0.5;exitDx=0;exitDy=0;" edge="1" parent="1" source="039ZhcAlNsJrHrZB0und-81">
          <mxGeometry relative="1" as="geometry">
            <mxPoint x="130" y="130" as="sourcePoint" />
            <mxPoint x="100" y="120" as="targetPoint" />
            <Array as="points">
              <mxPoint x="100" y="90" />
            </Array>
          </mxGeometry>
        </mxCell>
        <mxCell id="039ZhcAlNsJrHrZB0und-91" value="&lt;span style=&quot;white-space: normal; background-color: rgb(251, 251, 251);&quot;&gt;&lt;font style=&quot;font-size: 6px;&quot;&gt;«delegate»&lt;/font&gt;&lt;/span&gt;" style="edgeLabel;html=1;align=center;verticalAlign=middle;resizable=0;points=[];" vertex="1" connectable="0" parent="039ZhcAlNsJrHrZB0und-86">
          <mxGeometry x="-0.6193" y="1" relative="1" as="geometry">
            <mxPoint x="7" y="-4" as="offset" />
          </mxGeometry>
        </mxCell>
        <mxCell id="039ZhcAlNsJrHrZB0und-92" value="«component»&lt;br&gt;&lt;b&gt;:Region&lt;/b&gt;" style="text;html=1;align=center;verticalAlign=middle;whiteSpace=wrap;rounded=0;" vertex="1" parent="1">
          <mxGeometry x="75" y="40" width="60" height="30" as="geometry" />
        </mxCell>
      </root>
    </mxGraphModel>
  </diagram>
</mxfile>
